HIERARCHY
ROOT hip
{
	OFFSET 0.000000 0.000000 0.000000 
	CHANNELS 6 Xposition Yposition Zposition Xrotation Zrotation Yrotation
	JOINT abdomen
	{
		OFFSET 0.000000 3.402643 0.000000 
		CHANNELS 3 Xrotation Zrotation Yrotation
		JOINT chest
		{
			OFFSET 0.000000 8.438565 -0.680529 
			CHANNELS 3 Xrotation Zrotation Yrotation
			JOINT neck
			{
				OFFSET 0.000000 10.207942 -0.272212 
				CHANNELS 3 Xrotation Zrotation Yrotation
				JOINT head
				{
					OFFSET 0.000000 3.130431 0.000000 
					CHANNELS 3 Xrotation Zrotation Yrotation
					End Site
					{
						OFFSET 0.000000 3.130435 0.000000 
					}
				}
			}
			JOINT lCollar
			{
				OFFSET 3.470700 6.669187 -0.816635 
				CHANNELS 3 Yrotation Zrotation Xrotation
				JOINT lShldr
				{
					OFFSET 3.198488 0.000000 0.000000 
					CHANNELS 3 Zrotation Yrotation Xrotation
					JOINT lForeArm
					{
						OFFSET 10.139888 0.000000 0.000000 
						CHANNELS 3 Yrotation Zrotation Xrotation
						JOINT lHand
						{
							OFFSET 8.370511 0.000000 0.000000 
							CHANNELS 3 Zrotation Yrotation Xrotation
							End Site
							{
								OFFSET 4.083176 0.000000 0.000000 
							}
						}
					}
				}
			}
			JOINT rCollar
			{
				OFFSET -3.470700 6.669187 -0.816635 
				CHANNELS 3 Yrotation Zrotation Xrotation
				JOINT rShldr
				{
					OFFSET -3.198488 0.000000 0.000000 
					CHANNELS 3 Zrotation Yrotation Xrotation
					JOINT rForeArm
					{
						OFFSET -10.139888 0.000000 0.000000 
						CHANNELS 3 Yrotation Zrotation Xrotation
						JOINT rHand
						{
							OFFSET -8.370511 0.000000 0.000000 
							CHANNELS 3 Zrotation Yrotation Xrotation
							End Site
							{
								OFFSET -4.083176 0.000000 0.000000 
							}
						}
					}
				}
			}
		}
	}
	JOINT lThigh
	{
		OFFSET 5.308129 -1.633274 1.361059 
		CHANNELS 3 Xrotation Zrotation Yrotation
		JOINT lShin
		{
			OFFSET -2.041588 -20.007561 0.000000 
			CHANNELS 3 Xrotation Zrotation Yrotation
			JOINT lFoot
			{
				OFFSET 0.000000 -19.190928 -1.224953 
				CHANNELS 3 Xrotation Yrotation Zrotation
				End Site
				{
					OFFSET 0.000000 -2.449906 4.627600 
				}
			}
		}
	}
	JOINT rThigh
	{
		OFFSET -5.308129 -1.633274 1.361059 
		CHANNELS 3 Xrotation Zrotation Yrotation
		JOINT rShin
		{
			OFFSET 2.041588 -20.007561 0.000000 
			CHANNELS 3 Xrotation Zrotation Yrotation
			JOINT rFoot
			{
				OFFSET 0.000000 -19.190928 -1.224953 
				CHANNELS 3 Xrotation Yrotation Zrotation
				End Site
				{
					OFFSET 0.000000 -2.449906 4.627600 
				}
			}
		}
	}
}
MOTION
Frames: 15
Frame Time: 0.033333
-0.016997 46.230206 0.001512 -1.238317 6.453583 92.654648 0.000000 0.000000 0.000000 7.139054 0.591085 6.382722 28.402218 2.134143 0.027781 -22.775003 0.541935 2.228098 -8.116688 1.468190 25.000000 -80.015968 6.641845 -7.544634 -49.697948 11.062221 69.705101 -22.300610 -11.988279 -53.319305 -12.343702 2.869000 25.000000 55.131802 5.100483 62.482216 32.731846 -39.971012 33.650375 41.584949 2.506144 -81.698784 25.900940 3.390051 16.829260 6.876235 3.776500 1.197171 -5.185494 -11.119938 6.831344 27.796589 -1.865148 0.316446 1.205122 -1.040020 -0.943450 5.625810 3.137689 5.054622 
-0.076904 46.252792 -0.011551 -1.198618 6.287697 92.887077 0.000000 0.000000 0.000000 6.943651 0.523476 6.372432 28.358448 2.358309 0.039718 -22.832886 0.399949 2.099281 -8.239935 1.274587 25.000000 -79.008698 4.960162 -8.048656 -50.312164 10.764855 69.940598 -22.362841 -11.902290 -53.422150 -12.346200 3.088416 25.000000 54.095154 6.900811 61.635872 33.327225 -40.215759 34.551281 41.449188 2.271222 -81.710419 25.481091 3.302278 16.856897 7.029561 3.946003 1.232672 -5.153736 -11.397848 6.904673 27.497490 -1.943285 0.294132 1.354275 -0.925660 -0.910403 5.619485 2.905049 5.061765 
-0.158281 46.258133 -0.029009 -1.207542 5.887373 93.206848 0.000000 0.000000 0.000000 6.533448 0.494812 6.384876 28.227652 2.602203 0.056593 -22.832247 0.199975 2.006671 -8.523513 1.181485 25.000000 -78.218277 3.336311 -8.419715 -50.946491 10.619421 70.374847 -22.395697 -11.805610 -53.505737 -12.481984 3.209074 25.000000 53.209347 8.582591 60.893124 33.586739 -40.390663 34.653450 41.235737 1.967573 -81.738464 24.718874 3.243700 16.915920 7.248279 4.177097 1.272153 -5.143581 -11.807627 6.972999 26.898428 -1.972676 0.269493 1.552288 -0.800561 -0.865821 5.632261 2.600828 5.137142 
-0.241986 46.252033 -0.043719 -1.265401 5.408845 93.523811 0.000000 0.000000 0.000000 6.054952 0.534113 6.404399 28.066488 2.793092 0.077201 -22.802738 0.025005 1.928093 -8.825092 1.186215 25.000000 -77.650818 1.897217 -8.659137 -51.585972 10.562065 71.112671 -22.390253 -11.668651 -53.604149 -12.698652 3.238994 25.000000 52.545746 10.051544 60.303596 33.491894 -40.393169 33.934547 41.071304 1.654320 -81.781876 23.894464 3.252496 17.017271 7.496411 4.394042 1.301383 -5.108188 -12.221043 7.019309 26.222389 -1.971875 0.259855 1.739697 -0.690517 -0.821254 5.629784 2.324738 5.211771 
-0.308732 46.249249 -0.050716 -1.323513 5.057251 93.731422 0.000000 0.000000 0.000000 5.693666 0.592764 6.436149 27.921923 2.870480 0.081613 -22.744150 -0.041701 1.841808 -9.081594 1.161863 25.000000 -77.071434 0.595509 -8.910111 -52.263268 10.435951 71.797188 -22.423027 -11.269081 -53.794022 -12.896345 3.246524 25.000000 51.741962 11.416436 59.662243 33.599949 -40.210114 32.911057 40.956154 1.263141 -81.860199 23.286842 3.262820 17.081232 7.626062 4.522435 1.327051 -5.074471 -12.486458 7.014947 25.721395 -1.962805 0.283204 1.883627 -0.605070 -0.806878 5.660671 2.120480 5.267643 
-0.375010 46.248028 -0.006014 -1.744259 4.743905 93.742912 0.000000 0.000000 0.000000 5.332817 0.982060 6.537132 27.768557 2.981446 0.093594 -22.773457 -0.058363 1.519968 -9.259289 1.166811 25.000000 -76.320236 -0.854426 -9.237553 -52.780811 10.304933 72.249229 -21.311817 -11.360613 -54.185650 -12.968813 3.272330 25.000000 50.776508 13.173598 58.858433 33.916710 -40.094025 32.870060 40.345089 0.722780 -81.853683 22.772629 3.779474 17.342316 7.800841 4.473132 1.305286 -5.065594 -12.608644 6.962828 25.157459 -1.425095 0.415781 2.064816 -0.740655 -0.810767 5.685694 2.121971 5.256801 
-0.413536 46.260933 0.021624 -2.037976 4.655270 93.780388 0.000000 0.000000 0.000000 5.186794 1.254609 6.598439 27.651737 3.002208 0.096052 -22.871098 0.016658 1.405818 -9.356510 1.140221 25.000000 -75.726616 -2.067594 -9.490619 -53.010178 10.348690 72.093880 -20.644518 -11.485070 -54.415863 -13.015161 3.339220 25.000000 50.061958 14.494926 58.271957 33.830860 -40.014408 32.340969 39.869377 0.475724 -81.845444 22.614004 4.121989 17.471703 7.789202 4.413606 1.292631 -4.986751 -12.674169 6.845234 24.947136 -1.064247 0.536153 2.144022 -0.809286 -0.818079 5.701918 2.064023 5.248041 
-0.434982 46.279602 0.034652 -2.224229 4.683984 93.852089 0.000000 0.000000 0.000000 5.157882 1.439462 6.643797 27.583319 3.004232 0.092182 -22.949265 0.091540 1.428163 -9.374174 1.131881 25.000000 -75.262238 -3.218555 -9.678223 -53.084515 10.503185 71.623482 -20.414072 -11.565237 -54.501503 -13.078325 3.405048 25.000000 49.600006 15.555365 57.849503 33.466400 -40.142967 31.781649 39.556564 0.649412 -81.813324 22.665274 4.326365 17.546919 7.638508 4.401558 1.292315 -4.906675 -12.742846 6.704755 24.944244 -0.839960 0.610340 2.154876 -0.809300 -0.827499 5.726500 1.987514 5.253049 
-0.448642 46.295071 0.039912 -2.361671 4.761596 93.954918 0.000000 0.000000 0.000000 5.167999 1.585329 6.676784 27.524435 2.998764 0.094011 -22.949276 0.099862 1.501178 -9.347774 1.173298 25.000000 -74.904045 -4.374560 -9.799212 -53.203255 10.692643 71.096970 -20.541557 -11.598861 -54.501511 -13.168646 3.431913 25.000000 49.364300 16.499947 57.564869 32.944790 -40.651543 31.518518 39.435665 1.214984 -81.764603 22.810452 4.473036 17.594263 7.428230 4.394278 1.301376 -4.785850 -12.805340 6.560008 25.015867 -0.713264 0.651805 2.110210 -0.758612 -0.809383 5.770960 1.920649 5.240427 
-0.459918 46.296902 0.048537 -2.528441 4.809789 94.036652 0.000000 0.000000 0.000000 5.148921 1.760450 6.711565 27.415514 2.954291 0.089956 -22.832064 0.074991 1.506896 -9.366063 1.338395 25.000000 -74.606316 -5.484588 -9.893585 -53.661743 10.835559 70.704956 -20.917248 -11.611433 -54.414318 -13.321071 3.374605 25.000000 49.428032 17.400322 57.449310 32.299259 -41.695080 31.496222 39.556767 2.026400 -81.724747 22.934750 4.658682 17.643408 7.206504 4.366649 1.319444 -4.669833 -12.875815 6.455420 25.060141 -0.526921 0.688723 2.051443 -0.719909 -0.811234 5.822460 1.855871 5.238126 
-0.453410 46.311581 0.045378 -2.548786 5.004835 94.065453 0.000000 0.000000 0.000000 5.295587 1.798935 6.719673 27.403913 2.889598 0.082459 -22.832069 0.083323 1.511569 -9.427876 1.309169 25.000000 -74.332771 -5.921264 -10.007234 -54.191071 10.900937 70.889503 -20.942522 -11.739297 -54.373016 -13.401775 3.348631 25.000000 49.327644 17.902573 57.301914 32.113552 -41.995399 31.116098 39.470039 1.869540 -81.741966 23.227427 4.698180 17.628401 7.003515 4.303634 1.297733 -4.587104 -12.839310 6.437260 25.333597 -0.526922 0.698466 1.928690 -0.652945 -0.785842 5.847561 1.803499 5.210405 
-0.443099 46.327320 0.038405 -2.500610 5.219662 94.059532 0.000000 0.000000 0.000000 5.481165 1.778943 6.704099 27.392126 2.817681 0.079671 -22.861414 0.124945 1.583695 -9.445430 1.271919 25.000000 -74.136154 -6.175877 -10.092393 -54.692871 10.997887 71.227776 -20.817743 -11.911032 -54.354774 -13.456376 3.363729 25.000000 49.085121 18.359280 57.100975 32.144726 -41.967251 30.995958 39.167709 1.847809 -81.718796 23.561956 4.649417 17.567448 6.843556 4.266461 1.315390 -4.525816 -12.785643 6.433382 25.646154 -0.595384 0.671023 1.770719 -0.603559 -0.800884 5.901663 1.838243 5.178703 
-0.435114 46.339455 0.027242 -2.413120 5.415144 94.059341 0.000000 0.000000 0.000000 5.656855 1.720103 6.694008 27.380613 2.752960 0.072229 -22.890759 0.158215 1.670647 -9.445290 1.233386 25.000000 -74.022118 -6.326872 -10.140075 -55.174068 11.121167 71.655273 -20.662197 -12.111031 -54.338814 -13.501228 3.390260 25.000000 48.837788 18.718111 56.901615 32.223240 -41.756523 30.776041 38.788445 1.688604 -81.711990 23.852615 4.571469 17.498777 6.717826 4.247671 1.334215 -4.481000 -12.747655 6.465403 25.936350 -0.693861 0.662623 1.659364 -0.566056 -0.794844 5.955491 1.837865 5.197481 
-0.433045 46.345638 0.014914 -2.344991 5.552017 94.079758 0.000000 0.000000 0.000000 5.803229 1.661368 6.672944 27.360426 2.730387 0.077077 -22.900499 0.141546 1.749185 -9.445221 1.214119 25.000000 -73.970062 -6.402640 -10.168333 -55.581890 11.225407 72.064575 -20.566969 -12.283716 -54.306515 -13.555705 3.395849 25.000000 48.723778 18.897919 56.804745 32.241215 -41.586163 30.429834 38.556717 1.403483 -81.721817 24.014404 4.483893 17.449841 6.670560 4.268133 1.345498 -4.468935 -12.739104 6.491016 26.139788 -0.771383 0.643896 1.564095 -0.573517 -0.807828 5.979799 1.826880 5.223713 
-0.436875 46.346939 0.013762 -2.364890 5.620240 94.084831 0.000000 0.000000 0.000000 5.881445 1.680565 6.677213 27.341520 2.755470 0.079857 -22.890669 0.091598 1.760288 -9.454052 1.209946 25.000000 -73.941505 -6.391488 -10.177731 -55.680264 11.177506 72.239288 -20.585386 -12.323421 -54.277802 -13.600156 3.393873 25.000000 48.891998 18.788935 56.918312 32.152023 -41.857727 30.666292 38.719528 1.766173 -81.698242 24.055340 4.522779 17.460161 6.717831 4.247665 1.334215 -4.459249 -12.745870 6.563504 26.228893 -0.713081 0.667605 1.508368 -0.613118 -0.838792 6.019023 1.840136 5.277862 
